<?xml version="1.0" encoding="UTF-8"?>
<svg width="210px" height="100px" viewBox="0 0 210 100" version="1.1" xmlns="http://www.w3.org/2000/svg" xmlns:xlink="http://www.w3.org/1999/xlink">
    <title>DataDisplay / Empty / People</title>
    <g id="DataDisplay-/-Empty-/-People" stroke="none" stroke-width="1" fill="none" fill-rule="evenodd">
        <g id="Illustration-/-People" transform="translate(2.000000, 0.000000)">
            <path d="M150,34 C138.988731,34 130,43.0250689 130,54 L130.003626,54.4005961 C130.105043,59.9962806 132.328869,65.0518833 136.057837,68.5203632 L136.105,68.563 L135.598854,68.828806 C133.817568,69.7829139 132.125695,70.8956885 130.544608,72.1531078 C129.691595,72.8314987 129.538791,74.0679731 130.200992,74.9336147 C135.231436,81.5095065 138,89.541818 138,98 C138,99.1045695 138.895431,100 140,100 L180,100 C181.104569,100 182,99.1045695 182,98 L181.996974,97.5520246 C181.831795,85.3308136 174.917401,74.4277575 164.3547,68.8018649 L163.895,68.562 L163.942163,68.5203632 C167.759915,64.9693005 170,59.7546379 170,54 C170,43.0250689 161.011269,34 150,34 Z M150,38 C158.798509,38 166,45.2306034 166,54 C166,59.7152421 163.308868,64.6754857 158.969031,67.2862024 C157.545387,68.1426239 157.726145,70.2608738 159.274312,70.8636997 L159.663625,71.0184329 C169.867278,75.1567513 176.9325,84.5766779 177.889048,95.4651134 L177.93,96 L141.951,96 L141.933806,95.6248933 C141.504677,87.9429055 139.000097,80.6453309 134.742875,74.3932644 L134.569,74.142 L135.08877,73.7891597 C136.852727,72.6181067 138.742343,71.6359756 140.725688,70.8636997 C142.273855,70.2608738 142.454613,68.1426239 141.030969,67.2862024 C136.691132,64.6754857 134,59.7152421 134,54 C134,45.2306034 141.201491,38 150,38 Z" id="Oval-6" fill="#E3E3E3" fill-rule="nonzero"></path>
            <path d="M50,34 C38.948449,34 30,43.0654222 30,54.2352941 L30.0040026,54.642656 C30.1076477,59.914049 32.2192313,64.8189575 35.7645628,68.4508331 L36.119,68.804 L36.0899057,68.8189815 C25.1951347,74.1408786 18,85.381057 18,98 C18,99.1045695 18.8954305,100 20,100 L60,100 C61.0989099,100 61.9919787,99.113384 61.9999474,98.014503 L62.0042417,97.4223275 C62.1233739,89.2166723 64.8604403,81.4228774 69.7415019,75.010348 C70.4076179,74.1352333 70.2421738,72.8864845 69.371155,72.2150216 L68.843857,71.817098 C67.427469,70.7708954 65.9296151,69.8445145 64.3650677,69.0476562 L63.879,68.805 L63.9280538,68.758998 C67.751728,65.0074373 70,59.8120874 70,54.2352941 C70,43.0654222 61.051551,34 50,34 Z M50,38 C58.8307,38 66,45.2630163 66,54.2352941 C66,59.7052868 63.3164814,64.7082583 58.9310368,67.7081122 C57.5848995,68.6289345 57.8476335,70.687179 59.3819211,71.2403163 L59.9606822,71.4563397 C61.6890187,72.1236279 63.3449957,72.9633362 64.9059767,73.960807 L65.354,74.254 L65.1765237,74.5132326 C60.9798124,80.721265 58.5046777,87.9548297 58.0693195,95.5687201 L58.047,96 L22.069,96 L22.0757686,95.9029044 C22.8897908,84.6695114 30.1934241,74.9985853 40.6180789,71.2403163 C42.1523665,70.687179 42.4151005,68.6289345 41.0689632,67.7081122 C36.6835186,64.7082583 34,59.7052868 34,54.2352941 C34,45.2630163 41.1693,38 50,38 Z" id="Oval-6" fill="#E3E3E3" fill-rule="nonzero"></path>
            <path d="M100,14 C85.6405965,14 74,25.6405965 74,40 L74.0039034,40.4533776 C74.1312783,47.8472574 77.3692865,54.6777935 82.7329689,59.4398304 L82.931,59.612 L82.8815203,59.6346441 C67.960758,66.2913713 58,81.1945857 58,98 C58,99.1045695 58.8954305,100 60,100 L140,100 C141.109596,100 142.007094,99.0967109 142,97.9871381 L141.996581,97.4619038 L141.98632,96.9266625 C141.572859,80.6994536 131.889243,66.4113437 117.522995,59.8188061 L117.068,59.613 L117.267305,59.4404072 C122.740368,54.5803069 126,47.5673734 126,40 C126,25.6405965 114.359403,14 100,14 Z M100,18 C112.150264,18 122,27.8497355 122,40 C122,47.5579951 118.161064,54.4577763 111.930472,58.4875694 C110.529551,59.3936508 110.788528,61.5156612 112.366246,62.0582196 L112.816228,62.2161229 C127.020949,67.300919 136.961492,80.394843 137.92339,95.572662 L137.947,96 L62.052,96 L62.0774508,95.5633577 C63.0540389,80.2370786 73.1812379,67.0281657 87.633956,62.0568671 C89.2116963,61.5141721 89.4704569,59.392024 88.0693505,58.4861083 C81.8390571,54.4577771 78,47.5581341 78,40 C78,27.8497355 87.8497355,18 100,18 Z" id="Oval-6" fill="#CCCCCC" fill-rule="nonzero"></path>
            <path d="M2,96 L198,96 C199.104569,96 200,96.8954305 200,98 C200,99.1045695 199.104569,100 198,100 L2,100 C0.8954305,100 1.3527075e-16,99.1045695 0,98 C-1.3527075e-16,96.8954305 0.8954305,96 2,96 Z" id="Rectangle-4" fill="#E3E3E3"></path>
            <path d="M184,28 C185.104569,28 186,28.8954305 186,30 L186,34 L190,34 C191.104569,34 192,34.8954305 192,36 C192,37.1045695 191.104569,38 190,38 L186,38 L186,42 C186,43.1045695 185.104569,44 184,44 C182.895431,44 182,43.1045695 182,42 L182,38 L178,38 C176.895431,38 176,37.1045695 176,36 C176,34.8954305 176.895431,34 178,34 L182,34 L182,30 C182,28.8954305 182.895431,28 184,28 Z" id="Rectangle-4" fill="#E3E3E3"></path>
            <path d="M54,0 C55.1045695,-2.02906125e-16 56,0.8954305 56,2 L56,4 L58,4 C59.1045695,4 60,4.8954305 60,6 C60,7.1045695 59.1045695,8 58,8 L56,8 L56,10 C56,11.1045695 55.1045695,12 54,12 C52.8954305,12 52,11.1045695 52,10 L52,8 L50,8 C48.8954305,8 48,7.1045695 48,6 C48,4.8954305 48.8954305,4 50,4 L52,4 L52,2 C52,0.8954305 52.8954305,2.02906125e-16 54,0 Z" id="Rectangle-4" fill="#E3E3E3"></path>
            <path d="M6,62 C1.581722,62 -2,65.581722 -2,70 C-2,74.418278 1.581722,78 6,78 C10.418278,78 14,74.418278 14,70 C14,65.581722 10.418278,62 6,62 Z M6,66 C8.209139,66 10,67.790861 10,70 C10,72.209139 8.209139,74 6,74 C3.790861,74 2,72.209139 2,70 C2,67.790861 3.790861,66 6,66 Z" id="Oval" fill="#E3E3E3" fill-rule="nonzero"></path>
            <circle id="Oval-2" fill="#E3E3E3" cx="204" cy="72" r="4"></circle>
        </g>
    </g>
</svg>