<?xml version="1.0" standalone="no"?><!DOCTYPE svg PUBLIC "-//W3C//DTD SVG 1.1//EN" "http://www.w3.org/Graphics/SVG/1.1/DTD/svg11.dtd"><svg t="1606970282900" class="icon" viewBox="0 0 1024 1024" version="1.1" xmlns="http://www.w3.org/2000/svg" p-id="78464" xmlns:xlink="http://www.w3.org/1999/xlink" width="200" height="200"><defs><style type="text/css"></style></defs><path d="M238.934 324.266h-102.4c-9.426 0-17.066 7.64-17.066 17.066s7.64 17.066 17.066 17.066h102.4c9.426 0 17.066-7.64 17.066-17.066s-7.64-17.066-17.066-17.066zM238.934 392.534h-102.4c-9.426 0-17.066 7.64-17.066 17.066s7.64 17.066 17.066 17.066h102.4a17.066 17.066 0 0 0 0-34.132zM187.734 494.934c-37.702 0-68.266 30.564-68.266 68.266s30.564 68.266 68.266 68.266c37.684-0.044 68.224-30.582 68.266-68.266 0-37.702-30.564-68.266-68.266-68.266z m0 102.4c-18.844-0.018-34.114-15.29-34.134-34.134 0-18.852 15.282-34.134 34.134-34.134s34.134 15.282 34.134 34.134c-0.002 18.852-15.284 34.134-34.134 34.134zM204.8 170.666H85.334a17.066 17.066 0 0 0 0 34.132H204.8a17.066 17.066 0 0 0 0-34.132z" p-id="78465" fill="#cdcdcd"></path><path d="M972.8 733.866c28.264-0.03 51.17-22.936 51.2-51.2V136.534c-0.03-28.264-22.936-51.17-51.2-51.2H733.866V51.2c-0.03-28.264-22.936-51.17-51.2-51.2H341.334c-28.264 0.03-51.17 22.936-51.2 51.2v34.134H51.2C22.936 85.364 0.03 108.27 0 136.534v546.134c0.03 28.264 22.936 51.17 51.2 51.2h119.466V921.6H136.534c-18.844 0.018-34.114 15.29-34.134 34.134H17.066C7.64 955.734 0 963.374 0 972.8s7.64 17.066 17.066 17.066H102.4c0.018 18.844 15.29 34.114 34.134 34.134h102.4c18.844-0.018 34.114-15.29 34.134-34.134h153.6c0.018 18.844 15.29 34.114 34.134 34.134h102.4c18.844-0.018 34.114-15.29 34.134-34.134h153.6c0.018 18.844 15.29 34.114 34.134 34.134h102.4c18.844-0.018 34.114-15.29 34.134-34.134h85.334c9.426 0 17.066-7.64 17.066-17.066s-7.64-17.066-17.066-17.066H921.6c-0.018-18.844-15.29-34.114-34.134-34.134h-34.134v-187.734H972.8zM733.866 204.8h119.466a17.066 17.066 0 0 0 0-34.132h-119.466v-51.2H972.8a17.088 17.088 0 0 1 17.066 17.066V256h-256v-51.2z m-409.6-153.6a17.088 17.088 0 0 1 17.066-17.066h341.334a17.088 17.088 0 0 1 17.066 17.066v153.6H324.266V51.2z m0 187.734h375.466V768a17.088 17.088 0 0 1-17.066 17.066H341.334a17.088 17.088 0 0 1-17.066-17.066V238.934z m-290.132-102.4a17.088 17.088 0 0 1 17.066-17.066h238.934v51.2h-17.066a17.066 17.066 0 0 0 0 34.132h17.066V256h-256V136.534z m17.066 563.2a17.088 17.088 0 0 1-17.066-17.066V290.134h256v409.6H51.2z m85.334 290.132v-34.134h102.4l0.012 17.006-0.012 0.062 0.012 0.062 0.012 17.004H136.534z m290.132-34.132h-153.6c-0.018-18.844-15.29-34.114-34.134-34.134H204.8v-187.734h85.334V768c0.03 28.264 22.936 51.17 51.2 51.2h153.6v102.4H460.8c-18.844 0.018-34.114 15.29-34.134 34.134z m34.134 34.132v-34.134h102.4l0.012 17.006-0.012 0.062 0.012 0.062 0.012 17.004H460.8z m290.134-34.132h-153.6c-0.018-18.844-15.29-34.114-34.134-34.134h-34.134v-102.4h153.6c28.264-0.03 51.17-22.936 51.2-51.2v-34.134H819.2V921.6h-34.134c-18.842 0.018-34.114 15.29-34.132 34.134z m136.532 0l0.012 17.006-0.012 0.062 0.012 0.062 0.012 17.004h-102.426v-34.134h102.402z m-153.6-256v-409.6h256v392.534a17.088 17.088 0 0 1-17.066 17.066H733.866z" p-id="78466" fill="#cdcdcd"></path><path d="M887.466 324.266h-102.4a17.066 17.066 0 0 0 0 34.132h102.4c9.426 0 17.066-7.64 17.066-17.066s-7.64-17.066-17.066-17.066zM887.466 392.534h-102.4a17.066 17.066 0 0 0 0 34.132h102.4a17.066 17.066 0 0 0 0-34.132zM836.266 494.934c-37.702 0-68.266 30.564-68.266 68.266s30.564 68.266 68.266 68.266 68.266-30.564 68.266-68.266c-0.042-37.684-30.58-68.224-68.266-68.266z m0 102.4c-18.852 0-34.134-15.282-34.134-34.134s15.282-34.134 34.134-34.134S870.4 544.348 870.4 563.2c-0.018 18.844-15.29 34.114-34.134 34.134zM512 580.266c-37.702 0-68.266 30.564-68.266 68.266 0 37.702 30.564 68.266 68.266 68.266 37.702 0 68.266-30.564 68.266-68.266-0.042-37.684-30.582-68.222-68.266-68.266z m0 102.4c-18.852 0-34.134-15.282-34.134-34.134S493.148 614.4 512 614.4s34.134 15.282 34.134 34.134c-0.02 18.842-15.29 34.114-34.134 34.132zM938.666 170.666H921.6a17.066 17.066 0 0 0 0 34.132h17.066a17.066 17.066 0 0 0 0-34.132zM563.2 102.4h-187.734c-9.426 0-17.066 7.64-17.066 17.066s7.64 17.066 17.066 17.066H563.2c9.426 0 17.066-7.64 17.066-17.066s-7.64-17.066-17.066-17.066zM648.534 102.4h-17.066c-9.426 0-17.066 7.64-17.066 17.066s7.64 17.066 17.066 17.066h17.066a17.066 17.066 0 0 0 0-34.132zM426.666 307.2h170.666a17.066 17.066 0 0 0 0-34.132h-170.666a17.066 17.066 0 0 0 0 34.132zM426.666 375.466h170.666c9.426 0 17.066-7.64 17.066-17.066s-7.64-17.066-17.066-17.066h-170.666a17.066 17.066 0 0 0 0 34.132zM426.666 443.734h170.666a17.066 17.066 0 0 0 0-34.132h-170.666a17.066 17.066 0 0 0 0 34.132z" p-id="78467" fill="#cdcdcd"></path></svg>